<svg xmlns="http://www.w3.org/2000/svg" viewBox="0 0 128 128">
  <!-- Rounded Background with Emerald 950 -->
  <rect width="128" height="128" rx="28" fill="#022c22" />
  <!-- Golden Border Accent Ring -->
  <circle cx="64" cy="64" r="50" fill="none" stroke="#fbbf24" stroke-width="6" />
  <!-- Clean Soccer Ball Base -->
  <circle cx="64" cy="64" r="42" fill="#ffffff" />
  <!-- Center Pentagon -->
  <polygon points="64,48 77,58 72,74 56,74 51,58" fill="#022c22" />
  <!-- Connecting Seam Lines -->
  <line x1="64" y1="48" x2="64" y2="22" stroke="#022c22" stroke-width="5" stroke-linecap="round" />
  <line x1="77" y1="58" x2="101" y2="50" stroke="#022c22" stroke-width="5" stroke-linecap="round" />
  <line x1="72" y1="74" x2="88" y2="96" stroke="#022c22" stroke-width="5" stroke-linecap="round" />
  <line x1="56" y1="74" x2="40" y2="96" stroke="#022c22" stroke-width="5" stroke-linecap="round" />
  <line x1="51" y1="58" x2="27" y2="50" stroke="#022c22" stroke-width="5" stroke-linecap="round" />
  <!-- Seam Contours -->
  <path d="M64,22 C74,24 82,35 101,50 M101,50 C104,65 96,85 88,96 M88,96 C76,104 52,104 40,96 M40,96 C32,85 24,65 27,50 M27,50 C36,35 54,24 64,22" fill="none" stroke="#022c22" stroke-width="5" stroke-linecap="round" />
</svg>
